<svg width="360" height="192" viewBox="0 0 360 192" fill="none" xmlns="http://www.w3.org/2000/svg">
<path d="M6.00015 129.389V77.4043H25.0376C28.7267 77.4043 31.7811 78.0135 34.201 79.2319C36.6209 80.4334 38.4315 82.0664 39.633 84.1309C40.8345 86.1785 41.4352 88.4883 41.4352 91.0605C41.4352 93.2266 41.0376 95.0542 40.2422 96.5433C39.4469 98.0155 38.3808 99.2001 37.0439 100.097C35.724 100.977 34.2687 101.62 32.678 102.026V102.534C34.4041 102.618 36.0878 103.177 37.7293 104.209C39.3877 105.224 40.7584 106.671 41.8414 108.55C42.9244 110.428 43.4659 112.712 43.4659 115.403C43.4659 118.06 42.8398 120.446 41.5875 122.561C40.3522 124.66 38.44 126.326 35.8509 127.562C33.2618 128.78 29.9535 129.389 25.926 129.389H6.00015ZM13.8436 122.663H25.1645C28.9213 122.663 31.6119 121.935 33.2364 120.48C34.861 119.024 35.6732 117.205 35.6732 115.022C35.6732 113.381 35.2586 111.875 34.4294 110.504C33.6003 109.133 32.4157 108.042 30.8758 107.23C29.3528 106.417 27.5421 106.011 25.4438 106.011H13.8436V122.663ZM13.8436 99.8939H24.3523C26.1122 99.8939 27.6944 99.5555 29.099 98.8786C30.5204 98.2017 31.6458 97.254 32.4749 96.0356C33.321 94.8003 33.7441 93.345 33.7441 91.6697C33.7441 89.5206 32.9911 87.7184 31.485 86.2631C29.9789 84.8078 27.669 84.0801 24.5553 84.0801H13.8436V99.8939Z" fill="#092148"/>
<path d="M86.1987 77.4043H94.0675V111.596C94.0675 115.234 93.2129 118.458 91.5038 121.267C89.7946 124.059 87.3917 126.259 84.2949 127.866C81.1982 129.457 77.5684 130.252 73.4055 130.252C69.2595 130.252 65.6382 129.457 62.5415 127.866C59.4447 126.259 57.0417 124.059 55.3326 121.267C53.6235 118.458 52.7689 115.234 52.7689 111.596V77.4043H60.6123V110.961C60.6123 113.313 61.1285 115.403 62.1607 117.231C63.2099 119.058 64.6906 120.497 66.6028 121.546C68.515 122.578 70.7825 123.094 73.4055 123.094C76.0453 123.094 78.3214 122.578 80.2336 121.546C82.1627 120.497 83.6349 119.058 84.6503 117.231C85.6825 115.403 86.1987 113.313 86.1987 110.961V77.4043Z" fill="#092148"/>
<path d="M105.471 129.389V77.4043H113.314V102.229H113.949L135.753 77.4043H145.627L124.661 100.808L145.703 129.389H136.261L119.457 106.164L113.314 113.22V129.389H105.471Z" fill="#092148"/>
<path d="M186.368 77.4043H194.236V111.596C194.236 115.234 193.382 118.458 191.673 121.267C189.963 124.059 187.561 126.259 184.464 127.866C181.367 129.457 177.737 130.252 173.574 130.252C169.428 130.252 165.807 129.457 162.71 127.866C159.614 126.259 157.211 124.059 155.501 121.267C153.792 118.458 152.938 115.234 152.938 111.596V77.4043H160.781V110.961C160.781 113.313 161.297 115.403 162.33 117.231C163.379 119.058 164.859 120.497 166.772 121.546C168.684 122.578 170.951 123.094 173.574 123.094C176.214 123.094 178.49 122.578 180.402 121.546C182.332 120.497 183.804 119.058 184.819 117.231C185.851 115.403 186.368 113.313 186.368 110.961V77.4043Z" fill="#092148"/>
<path d="M13.8436 191.083H6.00024L6.00015 139.098H19.2785L48.8963 191.083H40.2168L15.5074 146.126H13.3051L13.8436 191.083ZM11.7875 170.725H33.9106V177.325H11.7875V170.725Z" fill="#092148"/>
<path d="M56.0497 191.083V139.098H75.0871C78.7762 139.098 81.8306 139.707 84.2505 140.925C86.6704 142.127 88.481 143.76 89.6825 145.824C90.884 147.872 91.4847 150.182 91.4847 152.754C91.4847 154.92 91.0871 156.748 90.2917 158.237C89.4964 159.709 88.4303 160.894 87.0934 161.79C85.7735 162.67 84.3182 163.313 82.7275 163.72V164.227C84.4536 164.312 86.1373 164.87 87.7788 165.903C89.4371 166.918 90.8078 168.365 91.8909 170.243C92.9739 172.121 93.5154 174.406 93.5154 177.097C93.5154 179.753 92.8893 182.139 91.637 184.255C90.4017 186.353 88.4895 188.02 85.9004 189.255C83.3113 190.474 80.003 191.083 75.9755 191.083H56.0497ZM63.8931 184.356H75.214C78.9708 184.356 81.6614 183.629 83.2859 182.173C84.9105 180.718 85.7227 178.899 85.7227 176.716C85.7227 175.074 85.3081 173.568 84.479 172.198C83.6498 170.827 82.4652 169.735 80.9253 168.923C79.4023 168.111 77.5916 167.705 75.4933 167.705H63.8931V184.356ZM63.8931 161.587H74.4018C76.1617 161.587 77.7439 161.249 79.1485 160.572C80.5699 159.895 81.6952 158.948 82.5244 157.729C83.3705 156.494 83.7936 155.039 83.7936 153.363C83.7936 151.214 83.0406 149.412 81.5345 147.957C80.0284 146.501 77.7185 145.774 74.6048 145.774H63.8931V161.587Z" fill="#092148"/>
<path d="M107.21 191.083H98.884L117.591 139.098H126.653L145.361 191.083H137.035L122.338 148.54H121.932L107.21 191.083ZM108.606 170.725H135.614V177.325H108.606V170.725Z" fill="#092148"/>
<path d="M169.697 191.083H152.868V139.098H170.23C175.324 139.098 179.698 140.139 183.353 142.22C187.008 144.284 189.809 147.254 191.755 151.13C193.718 154.988 194.7 159.616 194.7 165.014C194.7 170.429 193.71 175.083 191.73 178.975C189.767 182.867 186.924 185.862 183.201 187.961C179.478 190.042 174.977 191.083 169.697 191.083ZM160.711 184.229H169.266C173.225 184.229 176.517 183.485 179.14 181.996C181.763 180.49 183.726 178.315 185.029 175.472C186.332 172.612 186.983 169.126 186.983 165.014C186.983 160.936 186.332 157.475 185.029 154.632C183.742 151.789 181.822 149.632 179.267 148.16C176.711 146.687 173.538 145.951 169.748 145.951H160.711V184.229Z" fill="#092148"/>
<path d="M212.297 139.098V191.083H204.453V139.098H212.297Z" fill="#092148"/>
<path d="M257 16H344.46C361 16 360.5 68 344.46 68H257V62.4286C273.5 62.4286 274.5 21.5714 257 21.5714V16Z" fill="#092148"/>
<path d="M200 77H343.549C362.5 77 361 130 343.549 130H200V124.321C215.11 124.321 215.11 82.6786 200 82.6786V77Z" fill="#092148"/>
<path d="M220 139H343.612C366 139 363.5 191 343.612 191H220V185.429C234.983 185.429 234.983 144.571 220 144.571V139Z" fill="#092148"/>
<path d="M6.42863 66V17.6125H24.9541C27.9496 17.6125 30.5994 18.2576 32.9035 19.548C35.2538 20.7922 37.0741 22.6125 38.3644 25.0088C39.7008 27.3591 40.369 30.1932 40.369 33.5112C40.369 36.5066 39.7469 39.1795 38.5027 41.5297C37.2584 43.88 35.4842 45.7233 33.18 47.0597C30.8759 48.3962 28.0878 49.0644 24.8159 49.0644H13.8941V66H6.42863ZM13.8941 42.4975H24.1938C26.6823 42.4975 28.7099 41.7141 30.2768 40.1472C31.8897 38.5804 32.6962 36.3684 32.6962 33.5112C32.6962 30.4697 31.8897 28.1425 30.2768 26.5296C28.6639 24.9167 26.6592 24.1102 24.2629 24.1102H13.8941V42.4975ZM48.2671 66V17.6125H77.7144V24.1793H55.6635V37.9352H73.7743V44.433H55.6635V59.4331H77.7144V66H48.2671ZM87.0646 66V17.6125H105.867C108.77 17.6125 111.351 18.1655 113.609 19.2715C115.867 20.3314 117.641 21.9443 118.931 24.1102C120.222 26.23 120.867 28.8798 120.867 32.0596C120.867 34.9628 120.199 37.5435 118.862 39.8016C117.526 42.0136 115.636 43.7417 113.194 44.986C110.798 46.2302 107.94 46.8524 104.622 46.8524H94.5301V66H87.0646ZM115.06 66L103.586 46.3685L111.051 44.7786L123.77 66H115.06ZM94.5301 40.2855H104.968C106.535 40.2855 107.94 39.9629 109.185 39.3177C110.429 38.6265 111.397 37.6587 112.088 36.4145C112.825 35.1702 113.194 33.6956 113.194 31.9905C113.194 29.6402 112.41 27.7508 110.844 26.3222C109.277 24.8936 107.318 24.1793 104.968 24.1793H94.5301V40.2855ZM132.142 66V17.6125H150.667C153.663 17.6125 156.312 18.2576 158.617 19.548C160.967 20.7922 162.787 22.6125 164.078 25.0088C165.414 27.3591 166.082 30.1932 166.082 33.5112C166.082 36.5066 165.46 39.1795 164.216 41.5297C162.972 43.88 161.197 45.7233 158.893 47.0597C156.589 48.3962 153.801 49.0644 150.529 49.0644H139.607V66H132.142ZM139.607 42.4975H149.907C152.395 42.4975 154.423 41.7141 155.99 40.1472C157.603 38.5804 158.409 36.3684 158.409 33.5112C158.409 30.4697 157.603 28.1425 155.99 26.5296C154.377 24.9167 152.372 24.1102 149.976 24.1102H139.607V42.4975ZM191.4 66.8295C187.621 66.8295 184.349 66.023 181.584 64.4101C178.819 62.7972 176.699 60.5161 175.224 57.5667C173.75 54.5713 173.012 51.0459 173.012 46.9906V17.5433H180.409V46.9906C180.409 51.1842 181.377 54.387 183.312 56.599C185.294 58.811 187.897 59.917 191.123 59.917C193.243 59.917 195.086 59.4331 196.653 58.4654C198.266 57.4515 199.533 55.9769 200.455 54.0414C201.377 52.1059 201.838 49.7556 201.838 46.9906V17.5433H209.303V46.9906C209.303 53.1197 207.782 57.9585 204.741 61.5069C201.699 65.0553 197.252 66.8295 191.4 66.8295ZM235.748 66.8295C232.661 66.8295 230.011 66.3917 227.799 65.5161C225.587 64.5945 223.744 63.3963 222.269 61.9216C220.794 60.4009 219.642 58.6958 218.813 56.8064C218.029 54.9169 217.522 52.9814 217.292 50.9999H225.38C225.702 52.8893 226.301 54.5252 227.177 55.9077C228.098 57.2442 229.274 58.281 230.702 59.0184C232.177 59.7557 233.859 60.1244 235.748 60.1244C237.499 60.1244 239.089 59.8479 240.518 59.2949C241.993 58.7419 243.168 57.9354 244.043 56.8755C244.919 55.8156 245.357 54.5713 245.357 53.1427C245.357 51.3916 244.873 50.0321 243.905 49.0644C242.937 48.0505 241.67 47.2441 240.103 46.645C238.536 46.0459 236.808 45.539 234.919 45.1242C233.029 44.6634 231.14 44.1334 229.251 43.5344C227.361 42.9353 225.633 42.1519 224.066 41.1841C222.499 40.1703 221.232 38.8338 220.264 37.1748C219.297 35.4698 218.813 33.2808 218.813 30.608C218.813 28.2577 219.412 26.0227 220.61 23.9028C221.854 21.783 223.721 20.0779 226.209 18.7876C228.698 17.4512 231.831 16.783 235.61 16.783C238.421 16.783 240.864 17.2207 242.937 18.0963C245.011 18.9258 246.739 20.0318 248.122 21.4143C249.504 22.7968 250.564 24.3176 251.301 25.9766C252.039 27.5895 252.454 29.1794 252.546 30.7462H244.735C244.504 29.4098 243.997 28.2116 243.214 27.1517C242.477 26.0457 241.44 25.1701 240.103 24.525C238.813 23.8337 237.223 23.4881 235.334 23.4881C233.905 23.4881 232.522 23.7415 231.186 24.2485C229.85 24.7093 228.744 25.4466 227.868 26.4605C227.039 27.4743 226.624 28.7416 226.624 30.2623C226.624 31.8292 227.085 33.0965 228.006 34.0642C228.974 34.9859 230.241 35.7463 231.808 36.3453C233.421 36.8983 235.172 37.4283 237.062 37.9352C238.951 38.3961 240.817 38.9491 242.661 39.5942C244.55 40.1933 246.278 40.9998 247.845 42.0136C249.458 43.0274 250.725 44.3639 251.647 46.0229C252.615 47.6819 253.099 49.8017 253.099 52.3824C253.099 55.516 252.338 58.1658 250.818 60.3317C249.343 62.4977 247.292 64.1336 244.665 65.2396C242.085 66.2995 239.112 66.8295 235.748 66.8295Z" fill="#092148"/>
</svg>
